<?xml version="1.0" encoding="UTF-8" standalone="no"?>
<!-- Created with Inkscape (http://www.inkscape.org/) -->

<svg
   xmlns:dc="http://purl.org/dc/elements/1.1/"
   xmlns:cc="http://creativecommons.org/ns#"
   xmlns:rdf="http://www.w3.org/1999/02/22-rdf-syntax-ns#"
   xmlns:svg="http://www.w3.org/2000/svg"
   xmlns="http://www.w3.org/2000/svg"
   xmlns:sodipodi="http://sodipodi.sourceforge.net/DTD/sodipodi-0.dtd"
   xmlns:inkscape="http://www.inkscape.org/namespaces/inkscape"
   width="131.79987"
   height="30.993332"
   id="svg2"
   version="1.1"
   inkscape:version="0.92.3 (2405546, 2018-03-11)"
   sodipodi:docname="logo.svg"
   inkscape:export-filename="/home/lukas/Plocha/acoustid.png"
   inkscape:export-xdpi="90"
   inkscape:export-ydpi="90">
  <defs
     id="defs4">
    <inkscape:perspective
       sodipodi:type="inkscape:persp3d"
       inkscape:vp_x="0 : 526.18109 : 1"
       inkscape:vp_y="0 : 1000 : 0"
       inkscape:vp_z="744.09448 : 526.18109 : 1"
       inkscape:persp3d-origin="372.04724 : 350.78739 : 1"
       id="perspective10" />
  </defs>
  <sodipodi:namedview
     id="base"
     pagecolor="#ffffff"
     bordercolor="#666666"
     borderopacity="1.0"
     inkscape:pageopacity="0.0"
     inkscape:pageshadow="2"
     inkscape:zoom="2.8284271"
     inkscape:cx="-46.359538"
     inkscape:cy="12.235558"
     inkscape:document-units="px"
     inkscape:current-layer="layer1"
     showgrid="false"
     inkscape:window-width="1920"
     inkscape:window-height="1016"
     inkscape:window-x="0"
     inkscape:window-y="27"
     inkscape:window-maximized="1"
     showguides="true"
     inkscape:guide-bbox="true"
     fit-margin-left="2"
     fit-margin-top="2"
     fit-margin-right="2"
     fit-margin-bottom="2">
    <inkscape:grid
       type="xygrid"
       id="grid4203"
       originx="42.563395"
       originy="-54.130082" />
    <sodipodi:guide
       position="57.810238,2.1716894"
       orientation="0,1"
       id="guide4927"
       inkscape:locked="false" />
  </sodipodi:namedview>
  <metadata
     id="metadata7">
    <rdf:RDF>
      <cc:Work
         rdf:about="">
        <dc:format>image/svg+xml</dc:format>
        <dc:type
           rdf:resource="http://purl.org/dc/dcmitype/StillImage" />
        <dc:title />
      </cc:Work>
    </rdf:RDF>
  </metadata>
  <g
     inkscape:label="Vrstva 1"
     inkscape:groupmode="layer"
     id="layer1"
     transform="translate(42.563395,-967.23877)">
    <path
       inkscape:connector-curvature="0"
       id="path6069"
       style="font-style:normal;font-variant:normal;font-weight:bold;font-stretch:normal;font-size:medium;font-family:Junicode;-inkscape-font-specification:'Junicode Bold';fill:#000000;fill-opacity:1;stroke:none"
       d="m -18.624734,992.02879 q 0.72715,2.0573 3.582546,2.0573 0.26603,0 0.26603,0.83356 0,0.81583 -0.26603,0.81583 -2.039569,-0.1242 -4.699876,-0.1242 -2.660306,0 -4.877227,0.1242 -0.266031,0 -0.266031,-0.81583 0,-0.83356 0.266031,-0.83356 1.702595,0 1.702595,-1.15281 0,-0.37244 -0.177354,-0.90449 l -1.773537,-5.26741 q -0.124149,-0.39018 -0.603003,-0.42565 l -6.615295,0 q -0.372443,0 -0.567532,0.51433 l -1.933156,5.19646 q -0.159618,0.42565 -0.159618,0.74488 0,1.29469 2.607101,1.29469 0.23056,0 0.23056,0.83356 0,0.81583 -0.23056,0.81583 -1.472038,-0.1242 -4.132344,-0.1242 -2.660306,0 -4.043666,0.1242 -0.248295,0 -0.248295,-0.81583 0,-0.83356 0.248295,-0.83356 2.695778,0 3.582546,-2.32333 l 6.56209,-17.16785 q 0.23056,-0.53206 0.23056,-0.67394 0,-0.1419 -0.266031,-0.39018 -0.248295,-0.2483 -0.248295,-0.40792 0,-0.26603 0.585267,-0.46112 0.585267,-0.19509 1.826744,-0.93998 1.259212,-0.74488 1.596183,-0.74488 0.585268,0 0.780358,0.8513 0.195088,0.83356 0.939974,2.90859 l 6.10097,17.29201 z m -9.701252,-15.35884 q -0.08868,-0.28377 -0.283766,-0.28377 -0.177352,0 -0.283765,0.28377 l -2.819925,7.69715 q -0.0532,0.14188 -0.07095,0.28376 0,0.1951 0.372444,0.1951 l 5.196464,0 q 0.496591,0 0.496591,-0.39018 0,-0.10646 -0.0532,-0.26603 l -2.553894,-7.5198 z" />
    <path
       inkscape:connector-curvature="0"
       id="path6071"
       style="font-style:normal;font-variant:normal;font-weight:bold;font-stretch:normal;font-size:medium;font-family:Junicode;-inkscape-font-specification:'Junicode Bold';fill:#000000;fill-opacity:1;stroke:none"
       d="m -4.0512283,984.61539 q -0.656208,0 -0.9931809,-0.51432 l -0.6916798,-1.17053 q -0.6916798,-1.04639 -1.9863618,-1.04639 -1.4365654,0 -2.5006892,1.64939 -1.170533,1.809 -1.170533,4.34516 0,2.35882 1.5607122,4.02594 1.4010949,1.48977 3.1923673,1.48977 1.9331572,0 3.3165155,-0.97544 0.3015024,-0.21283 0.8158281,0.53205 0.4611199,0.76262 0.1596175,0.95771 l -1.4543007,0.93997 q -2.0573029,1.17054 -4.7176092,1.17054 -2.4829537,0 -4.4515797,-1.7558 -2.482952,-2.18145 -2.482952,-5.51571 0,-3.01501 1.87995,-5.44476 2.412011,-3.12141 6.2073801,-3.12141 2.3942758,0 3.9549895,0.79808 0.6916798,0.35471 0.9577103,0.79809 0.1064065,0.28377 0.1064065,0.70943 0,0.92223 -0.5497962,1.5075 -0.6207387,0.62073 -1.1527997,0.62073 z" />
    <path
       inkscape:connector-curvature="0"
       id="path6073"
       style="font-style:normal;font-variant:normal;font-weight:bold;font-stretch:normal;font-size:medium;font-family:Junicode;-inkscape-font-specification:'Junicode Bold';fill:#000000;fill-opacity:1;stroke:none"
       d="m 14.871988,988.05605 q 0,3.70671 -2.181452,5.87041 -2.110509,2.09278 -5.8172035,2.09278 -3.2810449,0 -5.5511724,-2.16371 -2.4652169,-2.32334 -2.4652169,-5.764 0,-3.01501 1.95089115,-5.24967 2.34106995,-2.6603 6.03002765,-2.6603 3.866312,0 6.225117,2.80218 1.809009,2.16372 1.809009,5.07231 z m -4.504786,0.10646 q 0,-3.26331 -1.2592112,-5.17873 -0.939975,-1.43656 -2.2346583,-1.43656 -1.4543007,0 -2.4652169,1.84447 -1.0641232,1.93316 -1.0641232,4.77082 0,3.28104 1.2946832,5.09005 0.9222397,1.27695 2.1991864,1.27695 1.6671254,0 2.6603063,-2.02183 0.8690337,-1.75581 0.8690337,-4.34517 z" />
    <path
       inkscape:connector-curvature="0"
       id="path6075"
       style="font-style:normal;font-variant:normal;font-weight:bold;font-stretch:normal;font-size:medium;font-family:Junicode;-inkscape-font-specification:'Junicode Bold';fill:#000000;fill-opacity:1;stroke:none"
       d="m 33.427304,995.06153 q -0.141884,0.0355 -1.862215,0.37245 -0.46112,0.0887 -0.904504,0.17735 -0.993181,0.21282 -2.021833,0.5498 -0.23056,0.071 -0.425649,0.071 -0.26603,0 -0.26603,-0.79809 l 0,-0.83356 q 0,-0.40792 -0.212825,-0.40792 -0.212825,0 -0.478855,0.2483 -1.631655,1.57845 -4.362902,1.57845 -2.234659,0 -3.015015,-0.62074 -2.6071,-2.09277 -2.6071,-5.26741 l 0,-6.13644 q 0,-1.82674 -1.489772,-1.82674 -0.26603,0 -0.26603,-0.63846 0,-0.65623 0.26603,-0.65623 1.986362,0 3.972725,-0.31923 0.549796,-0.0887 0.886768,-0.0887 0.815828,0 0.815828,0.78035 -0.124149,1.73807 -0.124149,2.8554 l 0,6.0655 q 0,2.18145 0.886769,3.22784 0.49659,0.58526 1.738066,0.58526 1.135065,0 2.34107,-0.97544 0.957711,-0.78036 0.957711,-1.64939 l 0,-7.36018 q 0,-1.82675 -1.489772,-1.82675 -0.283766,0 -0.283766,-0.63846 0,-0.65622 0.283766,-0.65622 1.968627,0 4.061401,-0.33697 0.443385,-0.071 0.69168,-0.071 0.939975,0 0.939975,0.63848 -0.141883,1.68485 -0.141883,2.76671 l 0,7.20057 q 0,1.59618 0.177354,2.07503 0.248295,0.70942 0.939975,0.70942 0.23056,0 0.585267,-0.0887 0.283765,-0.071 0.478855,0.56753 0.0532,0.24829 0.0532,0.40791 0,0.26603 -0.124149,0.31923 z" />
    <path
       inkscape:connector-curvature="0"
       id="path6077"
       style="font-style:normal;font-variant:normal;font-weight:bold;font-stretch:normal;font-size:medium;font-family:Junicode;-inkscape-font-specification:'Junicode Bold';fill:#000000;fill-opacity:1;stroke:none"
       d="m 39.386389,996.01924 q -2.589365,0 -4.25649,-1.06412 -0.496591,-1.18827 -0.496591,-3.91952 0,-0.33697 0.603002,-0.33697 0.673945,0 0.744886,0.3015 0.07095,0.95771 1.18827,2.2524 1.1528,1.34789 2.80219,1.34789 0.869034,0 1.596184,-0.74489 0.585267,-0.603 0.585267,-1.33016 0,-2.12824 -3.050485,-2.94408 -3.139161,-0.83356 -4.203283,-2.6603 -0.532061,-0.92224 -0.532061,-2.16371 0,-2.02184 1.773537,-3.35198 1.64939,-1.22374 3.972725,-1.22374 2.181451,0 3.848576,0.63846 0.69168,1.86222 0.69168,3.38746 0,0.33698 -0.532062,0.33698 -0.567532,0 -0.620738,-0.1951 -0.319237,-0.90449 -1.41883,-2.0041 -0.72715,-0.70941 -2.216922,-0.70941 -1.081858,0 -1.755803,0.88677 -0.407912,0.5498 -0.390177,1.13506 0,1.77354 2.979542,2.51843 2.837661,0.70942 3.972725,2.07504 0.886768,1.08186 0.886768,2.78445 0,2.35881 -1.968626,3.79537 -1.649391,1.22374 -4.203284,1.18827 z" />
    <path
       inkscape:connector-curvature="0"
       id="path6079"
       style="font-style:normal;font-variant:normal;font-weight:bold;font-stretch:normal;font-size:medium;font-family:Junicode;-inkscape-font-specification:'Junicode Bold';fill:#000000;fill-opacity:1;stroke:none"
       d="m 58.682474,994.01514 q -1.915421,2.0041 -4.859494,2.0041 -3.884047,-0.0355 -4.469314,-3.24557 -0.10642,-0.58527 -0.10642,-1.29468 l 0,-8.53072 q 0,-0.5498 -0.549796,-0.5498 l -0.975445,0 q -0.283766,0 -0.283766,-0.65621 0,-0.65621 0.283766,-0.65621 1.081858,0 2.358805,-1.04639 1.223741,-1.01091 1.631655,-2.23465 0.07095,-0.21282 0.744885,-0.0177 0.780356,0.21281 0.886768,0.53206 l 0,1.66712 q 0,0.5498 0.549798,0.5498 l 3.813106,0 q 0.26603,0 0.26603,0.93997 0,0.92223 -0.26603,0.92223 l -3.813106,0 q -0.549798,0 -0.549798,0.54981 l 0,7.36018 q 0,2.14597 0.603004,2.81992 0.478855,0.54981 1.542977,0.54981 0.922239,0 2.252393,-0.83358 0.19509,-0.14188 0.673945,0.42565 0.319236,0.40793 0.319236,0.62074 0,0.071 -0.0532,0.1242 z" />
    <path
       inkscape:connector-curvature="0"
       id="path6081"
       style="font-style:italic;font-variant:normal;font-weight:bold;font-stretch:normal;font-size:medium;font-family:Junicode;-inkscape-font-specification:'Junicode Bold Italic';fill:#c02717;fill-opacity:1;stroke:none"
       d="m 64.32233,992.41897 q -0.07097,0.24828 -0.07097,0.39017 0,0.30151 0.443395,0.30151 0.461112,0 1.578445,-1.41884 0.195083,-0.2483 0.673938,0.19508 0.354706,0.31925 0.372449,0.4966 0,0.071 -0.05323,0.14188 -1.135063,1.40109 -2.553899,2.48295 -1.418835,1.08186 -2.394277,1.08186 -1.791272,0 -1.791272,-2.21692 0,-0.603 0.195089,-1.24147 l 2.607098,-8.49525 q 0.07097,-0.23056 0.07097,-0.37244 0,-0.35471 -0.336975,-0.35471 -0.336972,0 -1.720331,1.4543 -0.212825,0.21283 -0.673945,-0.2483 -0.319236,-0.31923 -0.319236,-0.49659 0,-0.0532 0.0532,-0.1242 1.117329,-1.36562 2.518424,-2.42975 1.401097,-1.06411 2.376538,-1.06411 1.844487,0 1.844487,2.23465 0,0.44338 -0.212826,1.13506 l -2.607102,8.54846 z m 5.373814,-17.02596 q 0,0.95771 -0.780358,1.63164 -0.762614,0.67396 -1.684852,0.67396 -2.518425,0 -2.518425,-2.69578 0,-0.88678 0.780358,-1.57846 0.780357,-0.69168 1.738067,-0.69168 2.482953,0 2.46521,2.66032 z" />
    <path
       inkscape:connector-curvature="0"
       id="path6083"
       style="font-style:italic;font-variant:normal;font-weight:bold;font-stretch:normal;font-size:medium;font-family:Junicode;-inkscape-font-specification:'Junicode Bold Italic';fill:#c02717;fill-opacity:1;stroke:none"
       d="m 82.022228,991.56766 q -0.195083,0.85131 -0.212826,1.13506 0,0.39018 0.301502,0.39018 0.496599,0 1.667122,-1.5075 0.124201,-0.15962 0.390179,0 0.283772,0.14188 0.478855,0.40791 0.212826,0.26603 0.106458,0.42566 -2.607102,3.67121 -4.859498,3.67121 -1.028643,0 -1.365619,-0.63847 -0.336975,-0.63847 -0.336975,-1.80901 0,-0.3547 0.319232,-1.84448 l -0.212813,-0.10646 q -1.525242,1.79127 -3.174633,3.10369 -1.649392,1.29468 -3.22785,1.29468 -1.489768,0 -2.163706,-1.11733 -0.673951,-1.13506 -0.673951,-2.41201 0,-3.54708 3.227836,-7.80356 3.24558,-4.25649 6.881338,-4.25649 0.97544,0 1.915421,0.5498 l 1.649378,-6.89907 q 0.177353,-0.76261 0.177353,-1.33016 0,-1.33014 -1.09959,-1.33014 -0.336976,0 -0.336976,-0.63848 0,-0.63847 0.336976,-0.63847 1.489769,0 3.192376,-0.47885 1.720325,-0.4966 1.862205,-0.4966 0.372448,0 0.372448,0.33698 0,0.10645 -0.05323,0.3547 l -5.161,21.63716 z m -1.401092,-8.56619 q -0.727155,-1.04638 -1.791271,-1.04638 -2.02184,0 -3.937261,3.58255 -1.897678,3.5648 -1.897678,6.43793 0,1.66713 0.833561,1.66713 1.028657,0 3.192364,-2.34107 2.163719,-2.34107 2.465222,-3.56481 l 1.135063,-4.73535 z" />
  </g>
</svg>
